<svg width="16" height="17" viewBox="0 0 16 17" fill="none" xmlns="http://www.w3.org/2000/svg">
<path d="M6.66667 9.16667H2.66667C2.48986 9.16667 2.32029 9.23691 2.19526 9.36193C2.07024 9.48695 2 9.65652 2 9.83333V13.8333C2 14.0101 2.07024 14.1797 2.19526 14.3047C2.32029 14.4298 2.48986 14.5 2.66667 14.5H6.66667C6.84348 14.5 7.01305 14.4298 7.13807 14.3047C7.2631 14.1797 7.33333 14.0101 7.33333 13.8333V9.83333C7.33333 9.65652 7.2631 9.48695 7.13807 9.36193C7.01305 9.23691 6.84348 9.16667 6.66667 9.16667ZM6 13.1667H3.33333V10.5H6V13.1667ZM13.3333 2.5H9.33333C9.15652 2.5 8.98695 2.57024 8.86193 2.69526C8.73691 2.82029 8.66667 2.98986 8.66667 3.16667V7.16667C8.66667 7.34348 8.73691 7.51305 8.86193 7.63807C8.98695 7.7631 9.15652 7.83333 9.33333 7.83333H13.3333C13.5101 7.83333 13.6797 7.7631 13.8047 7.63807C13.9298 7.51305 14 7.34348 14 7.16667V3.16667C14 2.98986 13.9298 2.82029 13.8047 2.69526C13.6797 2.57024 13.5101 2.5 13.3333 2.5ZM12.6667 6.5H10V3.83333H12.6667V6.5ZM13.3333 11.1667H12V9.83333C12 9.65652 11.9298 9.48695 11.8047 9.36193C11.6797 9.23691 11.5101 9.16667 11.3333 9.16667C11.1565 9.16667 10.987 9.23691 10.8619 9.36193C10.7369 9.48695 10.6667 9.65652 10.6667 9.83333V11.1667H9.33333C9.15652 11.1667 8.98695 11.2369 8.86193 11.3619C8.73691 11.487 8.66667 11.6565 8.66667 11.8333C8.66667 12.0101 8.73691 12.1797 8.86193 12.3047C8.98695 12.4298 9.15652 12.5 9.33333 12.5H10.6667V13.8333C10.6667 14.0101 10.7369 14.1797 10.8619 14.3047C10.987 14.4298 11.1565 14.5 11.3333 14.5C11.5101 14.5 11.6797 14.4298 11.8047 14.3047C11.9298 14.1797 12 14.0101 12 13.8333V12.5H13.3333C13.5101 12.5 13.6797 12.4298 13.8047 12.3047C13.9298 12.1797 14 12.0101 14 11.8333C14 11.6565 13.9298 11.487 13.8047 11.3619C13.6797 11.2369 13.5101 11.1667 13.3333 11.1667ZM6.66667 2.5H2.66667C2.48986 2.5 2.32029 2.57024 2.19526 2.69526C2.07024 2.82029 2 2.98986 2 3.16667V7.16667C2 7.34348 2.07024 7.51305 2.19526 7.63807C2.32029 7.7631 2.48986 7.83333 2.66667 7.83333H6.66667C6.84348 7.83333 7.01305 7.7631 7.13807 7.63807C7.2631 7.51305 7.33333 7.34348 7.33333 7.16667V3.16667C7.33333 2.98986 7.2631 2.82029 7.13807 2.69526C7.01305 2.57024 6.84348 2.5 6.66667 2.5ZM6 6.5H3.33333V3.83333H6V6.5Z" fill="white"/>
</svg>
