<svg width="14" height="14" viewBox="0 0 14 14" fill="none" xmlns="http://www.w3.org/2000/svg">
<path d="M12.4113 13.9627L7.75708 9.32674L3.7599 13.3239H0.65707V10.2211L4.65425 6.22391L0 1.56967L1.05861 0.529306L13.4517 12.9406L12.4113 13.9627ZM9.8378 7.24602L6.73497 4.14319L8.39589 2.48226L11.4987 5.58509L9.8378 7.24602ZM12.5573 4.50823L9.45451 1.4419L10.4766 0.419795C10.7565 0.139932 11.1003 0 11.5082 0C11.9161 0 12.2597 0.139932 12.5391 0.419795L13.5612 1.4419C13.8411 1.72177 13.9871 2.05955 13.9992 2.45525C14.0114 2.85095 13.8776 3.18849 13.5977 3.46787L12.5573 4.50823Z" fill="#4B4B4B"/>
</svg>
