<svg width="20" height="21" viewBox="0 0 20 21" fill="none" xmlns="http://www.w3.org/2000/svg">
<path d="M1.95122 20.1176C1.41464 20.1176 0.955123 19.9269 0.572684 19.5456C0.190245 19.1642 -0.00064875 18.7053 1.65638e-06 18.1687V4.52681C1.65638e-06 3.99088 0.191221 3.53193 0.57366 3.14995C0.956099 2.76798 1.41529 2.57732 1.95122 2.57797H10.6585L3.90244 9.32583V16.2199H10.8049L17.561 9.44764V18.1687C17.561 18.7046 17.3698 19.1636 16.9873 19.5456C16.6049 19.9275 16.1457 20.1182 15.6098 20.1176H1.95122ZM5.85366 14.271V10.1297L12.8537 3.13826L17.0244 7.23083L10 14.271H5.85366ZM18.4146 5.84228L14.2439 1.74971L15.2927 0.702207C15.6829 0.312438 16.1506 0.117554 16.6956 0.117554C17.2407 0.117554 17.6998 0.312438 18.0732 0.702207L19.439 2.09076C19.813 2.46428 20 2.91901 20 3.45495C20 3.99088 19.813 4.44561 19.439 4.81914L18.4146 5.84228Z" fill="#7B7B7B"/>
</svg>
