<svg width="14" height="14" viewBox="0 0 14 14" fill="none" xmlns="http://www.w3.org/2000/svg">
<path d="M0 1.75C0 1.28587 0.184375 0.840752 0.512563 0.512563C0.840752 0.184375 1.28587 0 1.75 0L12.25 0C12.7141 0 13.1592 0.184375 13.4874 0.512563C13.8156 0.840752 14 1.28587 14 1.75V12.25C14 12.7141 13.8156 13.1592 13.4874 13.4874C13.1592 13.8156 12.7141 14 12.25 14H1.75C1.28587 14 0.840752 13.8156 0.512563 13.4874C0.184375 13.1592 0 12.7141 0 12.25V1.75ZM7.81375 5.7645L5.81 6.01562L5.73825 6.34813L6.132 6.42075C6.38925 6.482 6.44 6.57475 6.384 6.83113L5.73825 9.86562C5.5685 10.6505 5.83013 11.0197 6.44525 11.0197C6.92213 11.0197 7.476 10.7993 7.72713 10.4965L7.80412 10.1325C7.62912 10.2865 7.37362 10.3478 7.20387 10.3478C6.96325 10.3478 6.87575 10.1789 6.93787 9.88138L7.81375 5.7645ZM7 4.8125C7.23206 4.8125 7.45462 4.72031 7.61872 4.55622C7.78281 4.39212 7.875 4.16956 7.875 3.9375C7.875 3.70544 7.78281 3.48288 7.61872 3.31878C7.45462 3.15469 7.23206 3.0625 7 3.0625C6.76794 3.0625 6.54538 3.15469 6.38128 3.31878C6.21719 3.48288 6.125 3.70544 6.125 3.9375C6.125 4.16956 6.21719 4.39212 6.38128 4.55622C6.54538 4.72031 6.76794 4.8125 7 4.8125Z" fill="#19A3D1"/>
</svg>
