<svg width="8" height="29" viewBox="0 0 8 29" fill="none" xmlns="http://www.w3.org/2000/svg">
<path d="M7.77932 9.84792L0.446067 10.7638L0.184166 11.977L1.62705 12.238C2.56553 12.4628 2.75226 12.7987 2.54856 13.7339L0.184166 24.795C-0.434214 27.6539 0.523668 29 2.77166 29C4.51767 29 6.54014 28.1977 7.45922 27.0933L7.74052 25.7665C7.10274 26.3272 6.16426 26.5519 5.54588 26.5519C4.6656 26.5519 4.34792 25.9357 4.57102 24.8506L7.77932 9.84792ZM8 3.19C8 4.03604 7.66275 4.84743 7.06244 5.44567C6.46213 6.04391 5.64794 6.38 4.79898 6.38C3.95001 6.38 3.13582 6.04391 2.53551 5.44567C1.9352 4.84743 1.59795 4.03604 1.59795 3.19C1.59795 2.34396 1.9352 1.53257 2.53551 0.93433C3.13582 0.336088 3.95001 0 4.79898 0C5.64794 0 6.46213 0.336088 7.06244 0.93433C7.66275 1.53257 8 2.34396 8 3.19Z" fill="white"/>
</svg>
