<svg width="20" height="20" viewBox="0 0 20 20" fill="none" xmlns="http://www.w3.org/2000/svg">
<g clip-path="url(#clip0_1304_15691)">
<path d="M5.9375 8.75C5.68886 8.75 5.4504 8.84877 5.27459 9.02459C5.09877 9.2004 5 9.43886 5 9.6875C5 9.93614 5.09877 10.1746 5.27459 10.3504C5.4504 10.5262 5.68886 10.625 5.9375 10.625H11.5625C11.8111 10.625 12.0496 10.5262 12.2254 10.3504C12.4012 10.1746 12.5 9.93614 12.5 9.6875C12.5 9.43886 12.4012 9.2004 12.2254 9.02459C12.0496 8.84877 11.8111 8.75 11.5625 8.75H5.9375ZM6.25 5.9375C6.25 5.68886 6.34877 5.4504 6.52459 5.27459C6.7004 5.09877 6.93886 5 7.1875 5H14.0625C14.3111 5 14.5496 5.09877 14.7254 5.27459C14.9012 5.4504 15 5.68886 15 5.9375C15 6.18614 14.9012 6.4246 14.7254 6.60041C14.5496 6.77623 14.3111 6.875 14.0625 6.875H7.1875C6.93886 6.875 6.7004 6.77623 6.52459 6.60041C6.34877 6.4246 6.25 6.18614 6.25 5.9375ZM8.4375 12.5C8.18886 12.5 7.9504 12.5988 7.77459 12.7746C7.59877 12.9504 7.5 13.1889 7.5 13.4375C7.5 13.6861 7.59877 13.9246 7.77459 14.1004C7.9504 14.2762 8.18886 14.375 8.4375 14.375H14.0625C14.3111 14.375 14.5496 14.2762 14.7254 14.1004C14.9012 13.9246 15 13.6861 15 13.4375C15 13.1889 14.9012 12.9504 14.7254 12.7746C14.5496 12.5988 14.3111 12.5 14.0625 12.5H8.4375Z" fill="#19A3D1"/>
<path d="M0 2.1875C0 0.98 0.98 0 2.1875 0H17.8125C19.02 0 20 0.98 20 2.1875V17.8125C20 18.3927 19.7695 18.9491 19.3593 19.3593C18.9491 19.7695 18.3927 20 17.8125 20H2.1875C1.60734 20 1.05094 19.7695 0.640704 19.3593C0.230468 18.9491 0 18.3927 0 17.8125L0 2.1875ZM2.1875 1.875C2.10462 1.875 2.02513 1.90792 1.96653 1.96653C1.90792 2.02513 1.875 2.10462 1.875 2.1875V17.8125C1.875 17.985 2.015 18.125 2.1875 18.125H17.8125C17.8954 18.125 17.9749 18.0921 18.0335 18.0335C18.0921 17.9749 18.125 17.8954 18.125 17.8125V2.1875C18.125 2.10462 18.0921 2.02513 18.0335 1.96653C17.9749 1.90792 17.8954 1.875 17.8125 1.875H2.1875Z" fill="#19A3D1"/>
</g>
<defs>
<clipPath id="clip0_1304_15691">
<rect width="20" height="20" fill="white"/>
</clipPath>
</defs>
</svg>



