<svg width="7" height="7" viewBox="0 0 7 7" fill="none" xmlns="http://www.w3.org/2000/svg">
<path d="M3.83871 0.33871C3.83871 0.248878 3.80302 0.162726 3.7395 0.0992058C3.67598 0.0356854 3.58983 0 3.5 0C3.41017 0 3.32402 0.0356854 3.2605 0.0992058C3.19698 0.162726 3.16129 0.248878 3.16129 0.33871V2.68258L1.98303 1.50387C1.95177 1.47154 1.91439 1.44575 1.87305 1.42802C1.83172 1.41029 1.78727 1.40096 1.7423 1.40059C1.69732 1.40023 1.65273 1.40882 1.61111 1.42587C1.56949 1.44292 1.53169 1.46808 1.4999 1.4999C1.46811 1.53172 1.44298 1.56955 1.42597 1.61118C1.40896 1.65282 1.40041 1.69742 1.40082 1.74239C1.40123 1.78737 1.4106 1.83181 1.42837 1.87312C1.44614 1.91444 1.47196 1.9518 1.50432 1.98303L2.68213 3.16129H0.33871C0.248878 3.16129 0.162726 3.19698 0.0992058 3.2605C0.0356854 3.32402 0 3.41017 0 3.5C0 3.58983 0.0356854 3.67598 0.0992058 3.7395C0.162726 3.80302 0.248878 3.83871 0.33871 3.83871H2.68258L1.50387 5.01697C1.47154 5.04823 1.44575 5.08561 1.42802 5.12695C1.41029 5.16828 1.40096 5.21273 1.40059 5.2577C1.40023 5.30268 1.40882 5.34727 1.42587 5.38889C1.44292 5.43051 1.46808 5.46831 1.4999 5.5001C1.53172 5.53189 1.56955 5.55702 1.61118 5.57403C1.65282 5.59104 1.69742 5.59959 1.74239 5.59918C1.78737 5.59877 1.83181 5.5894 1.87312 5.57163C1.91444 5.55386 1.9518 5.52804 1.98303 5.49568L3.16129 4.31787V6.66129C3.16129 6.75112 3.19698 6.83727 3.2605 6.90079C3.32402 6.96431 3.41017 7 3.5 7C3.58983 7 3.67598 6.96431 3.7395 6.90079C3.80302 6.83727 3.83871 6.75112 3.83871 6.66129V4.31742L5.01697 5.49613C5.04823 5.52846 5.08561 5.55425 5.12695 5.57198C5.16828 5.58971 5.21273 5.59904 5.2577 5.59941C5.30268 5.59977 5.34727 5.59118 5.38889 5.57413C5.43051 5.55708 5.46831 5.53192 5.5001 5.5001C5.53189 5.46828 5.55702 5.43045 5.57403 5.38882C5.59104 5.34718 5.59959 5.30258 5.59918 5.25761C5.59877 5.21263 5.5894 5.16819 5.57163 5.12688C5.55386 5.08556 5.52804 5.0482 5.49568 5.01697L4.31787 3.83871H6.66129C6.75112 3.83871 6.83727 3.80302 6.90079 3.7395C6.96431 3.67598 7 3.58983 7 3.5C7 3.41017 6.96431 3.32402 6.90079 3.2605C6.83727 3.19698 6.75112 3.16129 6.66129 3.16129H4.31742L5.49613 1.98303C5.5578 1.91912 5.5919 1.83355 5.59109 1.74474C5.59027 1.65593 5.55461 1.57099 5.49178 1.50822C5.42895 1.44545 5.34398 1.40987 5.25517 1.40914C5.16636 1.40841 5.08082 1.44259 5.01697 1.50432L3.83871 2.68213V0.33871Z" fill="#E43626"/>
</svg>
