<svg width="18" height="19" viewBox="0 0 18 19" fill="none" xmlns="http://www.w3.org/2000/svg">
<path d="M9 0.499996C10.1935 0.499996 11.3381 0.974102 12.182 1.81802C13.0259 2.66193 13.5 3.80652 13.5 5C13.5 6.19347 13.0259 7.33806 12.182 8.18198C11.3381 9.02589 10.1935 9.5 9 9.5C7.80653 9.5 6.66193 9.02589 5.81802 8.18198C4.97411 7.33806 4.5 6.19347 4.5 5C4.5 3.80652 4.97411 2.66193 5.81802 1.81802C6.66193 0.974102 7.80653 0.499996 9 0.499996ZM9 11.75C13.9725 11.75 18 13.7637 18 16.25V18.5H0V16.25C0 13.7637 4.0275 11.75 9 11.75Z" fill="#7B7B7B"/>
</svg>
