<svg width="20" height="20" viewBox="0 0 20 20" fill="none" xmlns="http://www.w3.org/2000/svg">
<path d="M1.95122 20C1.41464 20 0.955123 19.8093 0.572684 19.428C0.190245 19.0467 -0.00064875 18.5877 1.65638e-06 18.0511V4.40925C1.65638e-06 3.87332 0.191221 3.41436 0.57366 3.03239C0.956099 2.65042 1.41529 2.45976 1.95122 2.46041H10.6585L3.90244 9.20827V16.1023H10.8049L17.561 9.33008V18.0511C17.561 18.5871 17.3698 19.046 16.9873 19.428C16.6049 19.81 16.1457 20.0006 15.6098 20H1.95122ZM5.85366 14.1535V10.0122L12.8537 3.0207L17.0244 7.11327L10 14.1535H5.85366ZM18.4146 5.72472L14.2439 1.63215L15.2927 0.584645C15.6829 0.194877 16.1506 -7.62939e-06 16.6956 -7.62939e-06C17.2407 -7.62939e-06 17.6998 0.194877 18.0732 0.584645L19.439 1.9732C19.813 2.34672 20 2.80145 20 3.33739C20 3.87332 19.813 4.32805 19.439 4.70157L18.4146 5.72472Z" fill="#0099CC"/>
</svg>
