<svg width="24" height="16" viewBox="0 0 24 16" fill="none" xmlns="http://www.w3.org/2000/svg">
<path d="M12 0.985168C12.9283 0.985168 13.8185 1.35392 14.4749 2.01029C15.1313 2.66667 15.5 3.55691 15.5 4.48517C15.5 5.41343 15.1313 6.30366 14.4749 6.96004C13.8185 7.61642 12.9283 7.98517 12 7.98517C11.0717 7.98517 10.1815 7.61642 9.52513 6.96004C8.86875 6.30366 8.5 5.41343 8.5 4.48517C8.5 3.55691 8.86875 2.66667 9.52513 2.01029C10.1815 1.35392 11.0717 0.985168 12 0.985168ZM5 3.48517C5.56 3.48517 6.08 3.63517 6.53 3.90517C6.38 5.33517 6.8 6.75517 7.66 7.86517C7.16 8.82517 6.16 9.48517 5 9.48517C4.20435 9.48517 3.44129 9.1691 2.87868 8.60649C2.31607 8.04388 2 7.28082 2 6.48517C2 5.68952 2.31607 4.92646 2.87868 4.36385C3.44129 3.80124 4.20435 3.48517 5 3.48517ZM19 3.48517C19.7956 3.48517 20.5587 3.80124 21.1213 4.36385C21.6839 4.92646 22 5.68952 22 6.48517C22 7.28082 21.6839 8.04388 21.1213 8.60649C20.5587 9.1691 19.7956 9.48517 19 9.48517C17.84 9.48517 16.84 8.82517 16.34 7.86517C17.2119 6.73959 17.6166 5.32137 17.47 3.90517C17.92 3.63517 18.44 3.48517 19 3.48517ZM5.5 13.7352C5.5 11.6652 8.41 9.98517 12 9.98517C15.59 9.98517 18.5 11.6652 18.5 13.7352V15.4852H5.5V13.7352ZM0 15.4852V13.9852C0 12.5952 1.89 11.4252 4.45 11.0852C3.86 11.7652 3.5 12.7052 3.5 13.7352V15.4852H0ZM24 15.4852H20.5V13.7352C20.5 12.7052 20.14 11.7652 19.55 11.0852C22.11 11.4252 24 12.5952 24 13.9852V15.4852Z" fill="#7B7B7B"/>
</svg>
