<svg width="16" height="15" viewBox="0 0 16 15" fill="none" xmlns="http://www.w3.org/2000/svg">
<path d="M11.5625 9.66665H10.8713L10.6263 9.44165C11.1731 8.83662 11.5728 8.12396 11.7966 7.35466C12.0205 6.58536 12.0631 5.77844 11.9213 4.99165C11.51 2.67498 9.48004 0.824979 7.03004 0.541646C6.1687 0.437867 5.29385 0.523122 4.47244 0.790886C3.65102 1.05865 2.9048 1.50183 2.29089 2.08651C1.67698 2.67118 1.21164 3.38186 0.930492 4.16417C0.649339 4.94647 0.559822 5.77966 0.668789 6.59998C0.966289 8.93331 2.90879 10.8666 5.34129 11.2583C6.16742 11.3934 7.01469 11.3528 7.82245 11.1396C8.63022 10.9264 9.37851 10.5458 10.0138 10.025L10.25 10.2583V10.9166L13.9688 14.4583C14.3275 14.8 14.9138 14.8 15.2725 14.4583C15.6313 14.1166 15.6313 13.5583 15.2725 13.2166L11.5625 9.66665ZM6.31254 9.66665C4.13379 9.66665 2.37504 7.99165 2.37504 5.91665C2.37504 3.84165 4.13379 2.16665 6.31254 2.16665C8.49129 2.16665 10.25 3.84165 10.25 5.91665C10.25 7.99165 8.49129 9.66665 6.31254 9.66665Z" fill="#6D6D6D"/>
</svg>
